<?xml version="1.0" standalone="no"?>
<!DOCTYPE svg PUBLIC "-//W3C//DTD SVG 20010904//EN"
 "http://www.w3.org/TR/2001/REC-SVG-20010904/DTD/svg10.dtd">
<svg version="1.0" xmlns="http://www.w3.org/2000/svg"
 width="2170.000000pt" height="750.000000pt" viewBox="0 0 2170.000000 750.000000"
 preserveAspectRatio="xMidYMid meet">
<metadata>
Created by potrace 1.16, written by Peter Selinger 2001-2019
</metadata>
<g transform="translate(0.000000,750.000000) scale(0.100000,-0.100000)"
fill="black" stroke="none">
<path d="M4185 5344 c-2389 -492 -2835 -582 -2865 -574 -98 26 -197 -67 -170
-159 19 -68 48 -93 125 -107 23 -4 377 -188 840 -437 440 -236 801 -430 802
-431 0 -1 67 -369 147 -818 80 -449 152 -831 161 -847 8 -17 29 -37 45 -46 34
-18 103 -20 133 -3 12 6 264 170 559 365 296 194 540 353 543 353 4 0 263
-165 578 -367 558 -358 572 -367 620 -366 53 1 88 20 113 63 29 51 1394 3800
1394 3830 0 77 -59 131 -142 129 -29 -1 -1326 -264 -2883 -585z m1910 107 c-6
-5 -695 -360 -1531 -790 l-1522 -782 -588 317 c-704 378 -683 366 -664 373 13
4 4281 887 4305 890 6 1 6 -2 0 -8z m656 -138 c-16 -43 -273 -746 -571 -1563
-299 -817 -546 -1489 -550 -1493 -7 -9 -1601 1014 -1597 1025 3 9 2730 2107
2739 2108 4 0 -5 -35 -21 -77z m-991 -347 c0 -3 -462 -360 -1027 -794 -566
-435 -1038 -800 -1050 -813 -12 -14 -76 -175 -152 -389 -73 -201 -134 -372
-138 -380 -8 -21 -8 -20 -109 551 -62 351 -85 502 -78 509 8 8 2525 1309 2552
1319 1 1 2 -1 2 -3z m-1703 -2032 c107 -70 191 -130 186 -134 -17 -15 -626
-411 -628 -408 -3 4 239 668 243 668 2 0 91 -57 199 -126z"/>
<path d="M8845 5126 c-33 -7 -69 -17 -80 -23 -11 -6 -55 -17 -97 -24 -70 -12
-79 -11 -96 4 -10 9 -32 17 -48 17 -62 -1 -198 -82 -291 -175 -59 -59 -61 -63
-56 -101 4 -33 1 -45 -21 -71 -14 -17 -42 -66 -62 -109 -41 -91 -31 -74 -130
-229 -165 -261 -248 -472 -261 -660 -8 -118 29 -246 90 -314 28 -29 144 -109
217 -147 52 -28 61 -29 175 -28 142 1 315 34 443 84 188 73 372 243 372 344 0
70 -148 60 -244 -17 -114 -91 -169 -116 -340 -157 -141 -33 -218 -37 -293 -15
-113 34 -193 131 -193 236 0 110 74 337 116 353 7 3 20 -7 29 -21 16 -25 20
-25 84 -20 70 6 670 154 734 180 22 10 41 26 47 41 16 43 -16 120 -65 152 -27
18 -36 16 -320 -57 -219 -56 -302 -71 -346 -64 -22 4 -39 11 -39 17 0 16 21
49 85 138 35 47 77 113 94 148 45 89 117 179 160 202 39 19 317 77 506 105
192 28 253 72 210 152 -35 65 -58 73 -197 72 -67 -1 -150 -6 -183 -13z"/>
<path d="M15355 5067 c-280 -17 -590 -58 -710 -92 -118 -34 -134 -144 -25
-176 29 -9 83 -7 246 10 250 25 234 25 206 5 -12 -8 -22 -23 -22 -33 0 -11
-15 -50 -34 -87 -33 -68 -144 -401 -207 -619 -17 -60 -39 -130 -49 -155 -59
-149 -158 -472 -166 -545 -14 -113 91 -199 156 -130 15 16 50 101 96 238 39
116 102 293 139 392 37 99 120 335 185 525 148 433 152 441 181 453 13 5 69 6
124 3 78 -5 111 -12 151 -31 60 -29 69 -30 142 -9 90 26 111 58 78 122 -43 81
-119 111 -351 135 -11 1 -74 -1 -140 -6z"/>
<path d="M17788 4820 c-9 -6 -42 -59 -73 -118 -61 -116 -64 -138 -25 -192 25
-35 76 -51 125 -40 49 11 80 33 115 82 77 106 59 212 -44 259 -46 21 -73 23
-98 9z"/>
<path d="M18760 4492 c-13 -10 -25 -36 -30 -63 -5 -25 -38 -122 -74 -215 -91
-239 -220 -623 -251 -750 -14 -60 -32 -122 -39 -139 -16 -35 -53 -191 -61
-255 -4 -25 -13 -76 -22 -113 -19 -84 -13 -137 22 -182 47 -63 121 -41 164 48
12 24 21 63 21 86 0 24 8 57 18 75 11 17 27 69 36 116 10 47 22 104 28 126 5
23 7 51 4 62 -4 12 0 24 10 32 22 19 51 79 59 123 9 46 13 49 58 35 65 -20
267 32 267 68 0 9 11 14 28 14 31 0 132 46 181 83 18 15 43 41 54 59 10 18 25
36 32 40 20 12 63 90 91 166 21 54 25 77 19 117 -28 216 -225 305 -437 199
-26 -13 -50 -24 -53 -24 -4 0 3 16 15 35 12 19 26 64 31 101 8 57 6 72 -10
110 -21 47 -49 64 -106 64 -18 0 -43 -8 -55 -18z m345 -436 c102 -102 -50
-281 -308 -366 -85 -28 -102 -23 -92 28 21 115 150 278 265 335 67 34 104 34
135 3z"/>
<path d="M11978 4466 c-198 -70 -417 -268 -473 -427 -26 -71 -10 -216 25 -227
5 -2 10 -12 10 -22 0 -9 19 -35 43 -56 61 -55 176 -144 186 -144 4 0 16 -9 27
-21 18 -20 18 -21 0 -34 -32 -24 -119 -28 -218 -12 -87 15 -95 15 -123 -2 -41
-23 -42 -43 -4 -86 67 -76 206 -122 332 -110 254 25 344 140 239 305 -17 27
-71 78 -137 130 -156 122 -165 131 -165 177 0 66 43 135 133 216 91 81 235
162 267 152 39 -12 22 -67 -44 -145 -25 -30 -46 -60 -46 -68 0 -23 66 -82 92
-82 56 0 178 83 178 121 0 5 9 18 20 29 17 17 20 33 20 115 l0 94 -52 54 c-48
49 -58 54 -108 60 -91 11 -132 8 -202 -17z"/>
<path d="M13161 4420 c-49 -11 -66 -34 -111 -144 -46 -112 -162 -452 -184
-538 -19 -73 -10 -105 46 -168 24 -27 54 -63 67 -80 44 -59 63 -65 134 -45 34
9 78 27 97 39 85 54 143 86 148 82 3 -3 -18 -78 -47 -166 -96 -292 -210 -439
-388 -501 -31 -10 -61 -23 -68 -29 -6 -5 -53 -9 -103 -7 -82 2 -93 0 -113 -20
-32 -31 -20 -83 29 -123 55 -46 96 -55 186 -41 162 24 260 76 392 206 186 185
284 406 359 815 52 282 63 327 102 405 29 58 36 81 36 135 1 77 -15 116 -62
147 -35 24 -114 32 -126 13 -7 -11 -86 -318 -119 -460 -21 -90 -25 -98 -75
-147 -57 -57 -136 -100 -191 -105 l-35 -3 -3 49 c-4 62 24 202 48 241 10 17
24 53 31 80 6 28 29 91 50 142 42 100 47 129 25 172 -26 49 -64 65 -125 51z"/>
<path d="M16225 4425 c-5 -2 -23 -6 -38 -10 -25 -5 -36 -21 -77 -108 -49 -102
-141 -363 -159 -447 -5 -25 -21 -99 -35 -165 -37 -174 -37 -179 29 -242 68
-66 91 -68 139 -12 24 29 39 59 47 98 30 146 46 178 132 268 44 46 101 99 126
117 84 62 265 154 339 174 48 13 84 30 103 48 31 30 38 59 15 67 -8 3 -20 18
-28 34 -17 35 -76 57 -136 49 -111 -15 -279 -115 -419 -249 -35 -33 -63 -55
-63 -50 0 6 27 66 59 133 84 173 100 254 53 279 -21 11 -74 21 -87 16z"/>
<path d="M10232 4399 c-60 -30 -221 -176 -265 -240 -20 -30 -60 -85 -88 -124
-54 -74 -176 -314 -204 -401 -16 -51 -16 -52 9 -101 31 -59 114 -130 163 -139
116 -22 261 56 455 244 82 79 99 92 104 76 3 -11 22 -52 41 -92 59 -119 136
-174 248 -176 76 -1 110 18 126 74 17 55 3 92 -36 103 -74 22 -95 39 -128 106
-29 60 -32 73 -32 161 1 81 6 108 32 182 l32 88 -28 22 c-16 13 -75 63 -131
112 -57 49 -119 98 -139 108 -47 24 -106 23 -159 -3z m162 -257 l30 -43 -24
-47 c-38 -71 -111 -154 -221 -250 -115 -100 -203 -162 -229 -162 -18 0 -18 2
1 58 41 120 234 406 311 462 59 43 93 38 132 -18z"/>
<path d="M17603 4218 c-6 -7 -27 -67 -48 -133 -20 -66 -57 -173 -81 -238 -96
-258 -99 -421 -8 -464 37 -18 75 -12 103 16 25 25 59 117 82 224 11 48 30 116
44 150 13 34 29 82 35 107 7 25 23 71 36 102 34 82 32 121 -12 175 -53 65
-125 94 -151 61z"/>
</g>
</svg>
